<?xml version='1.0' encoding='utf-8'?>
<svg xmlns="http://www.w3.org/2000/svg" data-name="Layer 1" viewBox="0 0 3975.4 4060.3"> <path transform="translate(-445.07 -426.52)" d="m4420.4 2418.4c-1.1899-61.1-1.9399-121.86-9.1401-182.91-12.91-109.35-31.14-217.41-59.4-323.7-97.94-368.32-295.74-676.63-567.73-939.71-133.9-129.51-285.93-233.95-450.33-321.15-160.39-85.06-328.64-146.85-507.04-182.22-83.56-16.57-167.32-31.13-252.03-37.81-79.22-6.25-158.73-4.98-238.37-1.62-114.05 4.8-226.14 21.75-336.83 47.22-269.13 61.94-513.22 179.69-734.46 343.42-168.8 124.92-312.51 275.93-436.11 445.7-141.79 194.77-247.7 407.08-310.49 640.29-38.29 142.2-65.43 286.52-71.56 433.66a2187.6 2187.6 0 0 0 12.81 343.28 2104.3 2104.3 0 0 0 109.58 468.11c112.07 313.4 298.98 577.42 539.86 804.67 138.16 130.34 294.88 234.25 463.62 320.44 249.18 127.28 514.15 196.03 793.22 209.58 54.97 2.6699 110.34 0.07959 165.66-3.1104 104.72-6.0298 207.75-20.81 310.02-43.32 336.71-74.12 631.49-230 888.41-458.05 125.01-110.96 234.14-236.74 330.29-373.62 91.43-130.15 167.94-268.42 223.96-417.4 93.52-248.66 138.09-506.17 136.06-771.75zm-2902 107.88c-10.48 8.01-14.41-3.1201-19.81-7.9199-73.47-65.14-121.06-146.68-149.36-239.79-36.58-120.37-38.63-240.2 13.19-357.05 38.71-87.3 98.01-156.02 190.61-188.88 84.55-30 159.23-10.13 223.82 50.91 2.8401 2.02 5.03 4.53 1.78 7.53-0.67993 0.63-3.83-1.41-5.84-2.22-32.05-11.61-63.16-26.85-98.34-26.77-156.3 0.35-253.71 93.6-284.48 243.97-35.63 174.17 17.84 326.74 110.68 470.33 6.3401 9.8101 13.06 19.17 16.48 30.7 1.9601 6.5899 10.16 12.41 1.2701 19.19zm393.55 618.58c-0.05005 0.00976-0.09009 0.00976-0.14 0.01977l0.37-0.36987c-0.08009 0.11987-0.15992 0.23996-0.23 0.3501zm1.1699-741.18c-51.51 81.84-148.61 108.77-236.63 65.94-3.3101-0.09985-6.1301-0.92993-7.1101-4.6099l0.15015 0.60986c-29.26-9.9399-52.41-29.56-71.99-51.83-69.45-78.94-111.95-169.6-109.47-276.92 2.4601-106.67 86.93-190.54 187.41-184.93 64.88 3.63 117.94 34.01 160.17 83.25 61.41 65.03 93.63 143.84 105.99 231 6.8802 48.51-1.9799 95.3-28.52 137.49zm359.42-1125.8c-5.7202 8.85-14.75 0.83-22.01-2.85-96.23-48.76-232.44-26.29-309.46 51.49-79.65 80.44-111.53 180.12-114.95 290.69-1.0998 35.5-0.17993 71.05-0.17993 113.22-34.86-64.82-45.58-129.61-39.01-195.5 8.4399-84.6 39.17-161.9 95.91-226.97 63.51-72.83 143.44-111.04 240.55-107.63 52.34 1.8398 99.58 20.46 138.12 57.5 5.75 5.5199 16.24 11.98 11.03 20.05zm197.06 138.16c-0.81982-0.65-1.6499-1.29-2.47-1.93 0.6001-0.55994 1.21-1.12 1.8201-1.6901 0.53 0.63013 1.0701 1.26 1.6101 1.8801q-0.48009 0.86994-0.96018 1.7399zm10.74-45.97c47.17-112.84 151-178.12 272.13-169.35 47.71 3.46 91.71 18.95 126.85 53.56a64.812 64.812 0 0 1 11.72 15.85c1.6599 3.16 2.22 8.9601 0.37988 11.46-3.6499 4.97-8.6001 1.9399-13.02-0.82007-41.21-25.76-87.01-33.88-134.51-32.64-107.42 2.7999-188.22 54.63-250.54 139.05-6.25 8.4701-9.1799 19.7-22.17 23.09-4.4701-15.6 3.9399-27.71 9.1598-40.2zm61.71 1977.1c-2.23 17.86-11.85 31.39-31.64 33.27-15.73 1.5-36.89-19.31-36.53-35.01 0.29-13.01 20.14-31.61 34.13-31.99 15.65-0.41985 35.98 18.29 34.04 33.73zm295.26-1405.8c-70.83 86.3-199.84 94.51-279.97 20.65-3-2.77-5.1399-6.47-7.6799-9.74-1.3298-2-2.6499-4.01-3.97-6.01l0.03 0.65c-43.23-40.38-62.26-92.73-65.81-149.35-5.96-95.16 11.71-186.29 64.96-267.25 59.71-90.78 166.5-121.25 258.66-77.17 23.86 11.41 38.84 32.78 59.69 47.29 36.03 32.94 50.99 76.32 57.4 122.6 16.26 117.36-7.2299 225.64-83.31 318.33zm544.05-130.57c-3.7798 3.5801-6.8899 0.36-8.8799-3.4399l-1.28-1.2201c-95.91-52.42-191.67-57.81-285.22 4.37-23.96 15.92-43.9 37.98-65.16 57.78-4.1199 3.8301-6.6899 7-12.27 3.45-5.6499-3.59-1.3198-6.76 0.15015-10.16 64.63-149.95 244.98-193.21 358.95-73.35 2.6899 2.8401 3.79 7.2101 5.6401 10.86q2.3848 2.625 4.79 5.27c2.8198 1.3499 6.1699 3.71 3.2798 6.44z" fill="#001219"/> <path transform="translate(-445.07 -426.52)" d="m1748 4222.2c-68.602-25.3-131.06-58.83-192.94-93.241-191.26-106.35-361.29-239.96-505.26-404.85-202.12-231.48-350.09-492.6-423.07-793.34-27.56-113.58-47.588-228.06-55.647-345.06-31.578-458.41 83.694-874.88 353.04-1247.5q327.12-452.58 844.9-663.69 281.06-114.13 584.47-127.07c425.3-17.525 807.86 104.09 1152.2 351.57 272.91 196.14 477.74 449.11 624.65 749.94 71.907 147.24 115.02 303.82 144.11 464.55 27.268 150.65 32.435 302.7 24.33 455.04-7.7768 146.16-35.954 289.19-75.505 430.08-61.203 218.02-165.2 414.64-300 595.17q-305.38 408.97-771.43 619.05c-45.953 20.831-46.251 20.527-46.27-30.009-0.14327-391.2-1.5916-782.41 0.42827-1173.6 0.70558-136.6 55.485-249.66 169.77-329.93 63.818-44.821 127.98-88.81 179.79-148.6 89.896-103.75 132.12-225.95 147.66-360.2 12.549-108.39-2.7744-212.19-50.617-309.4-51.923-105.49-131.36-183.29-246.64-218.52a423.53 423.53 0 0 0-118.34-18.43c-51.509-0.69175-51.589-0.28162-51.844-53.303-0.35848-74.593-15.114-146.55-45.893-214.13-54.703-120.11-143.23-202.65-274.32-233.16-127.85-29.756-283.83 11.041-371.3 130-3.4643 4.7116-7.5634 8.951-11.173 13.562-7.5165 9.6036-12.335 12.466-21.541-0.58922-137.26-194.67-402.48-191.39-549.17-55.972-75.098 69.326-121.06 153.79-137.32 254.88-7.1862 44.691-12.685 89.364-11.061 134.64 0.64025 17.85-5.1697 24.455-24.429 24.022-86.18-1.9404-167.01 16.243-240.07 64.953-93.397 62.266-152.77 148.3-181.68 255.64-17.504 64.981-25.977 131.66-20.009 198.86 17.755 199.94 89.065 371.72 262.06 488.83 47.901 32.43 95.87 64.634 135.46 107.89 67.26 73.479 99.225 161.54 100.11 258.86 2.5384 277.85 1.651 555.73 2.2582 833.6q0.40743 186.33 1.3174 372.67c0.01595 4.7947-0.57326 9.5918-1.0354 16.807zm-78.329-278.57c4.6539-61.147 0.406-122.31 0.348-183.46-0.23289-245.69 0.96968-491.4-0.80258-737.08-0.80627-111.76-44.468-204.71-136.68-271.9-30.454-22.19-61.055-44.188-91.21-66.778-112.28-84.112-186.95-195.67-232.25-326.82a713.78 713.78 0 0 1-38.913-249.09c-1.5498-52.966 4.3322-105.13 15.501-156.91 40.513-187.82 192.04-377.95 424.48-402.5 28.3-2.989 31.77-12.989 33.043-36.792 8.0739-150.89 66.852-278.1 183.61-375.61 109.75-91.659 237.21-118.48 376.27-94.462 78.685 13.591 146.97 49.515 206.4 102.69 5.7875 5.1786 9.6171 14.818 21.617 3.65 100.81-93.825 221.67-125.99 356.22-110.17 150.9 17.744 263.16 96.375 342.84 223.82 51.286 82.038 73.642 173.04 80.066 268.43 0.88912 13.201 4.1871 16.146 16.969 16.951 136.05 8.5735 245.7 70.425 329.91 174.53 91.253 112.81 130.97 244.94 128.82 389.77 2.3842 60.822-7.0469 120.3-21.906 178.91-43.146 170.19-130.05 311.21-276.62 412.15-43.435 29.912-88.538 58.172-123.76 98.034-57.019 64.536-80.876 142.88-81.483 226.93-1.7208 238.28-1.017 476.57-0.63641 714.86 0.11129 69.609-3.5848 139.24 0.84946 208.84v149.59c4.5231-1.7641 8.3554-2.9579 11.924-4.694a1728.6 1728.6 0 0 0 343.95-220.82c133.19-109.74 248.32-236.38 350.11-376.3 214.19-294.43 309.61-627.71 329.97-986.08 5.5084-96.936-2.2271-193.75-13.598-290.5-16.517-140.55-46.326-277.89-96.679-409.63-131.05-342.89-343.76-625.56-641.83-840.46-200.01-144.2-418-252.44-661.81-303.6a2137.2 2137.2 0 0 0-311.41-41.829c-72.508-4.345-145.26 0.269-217.67 8.571-124.5 14.273-247.21 37.019-366.24 76.69q-290.01 96.657-534.35 280.79c-134.16 100.82-250.31 220.24-351.94 353.39-117.58 154.06-214.01 319.82-275.4 505.03-47.976 144.74-79.603 292.74-92.976 444.28a1536.1 1536.1 0 0 0-1.8058 253.35c5.1351 66.603 10.402 133.18 21.464 198.97 49.25 292.91 157.37 560.76 338.73 798.05 158.47 207.33 348.67 377.8 576.23 505.99 25.765 14.514 51.307 30.066 80.649 39.08z" fill="#f6ffff"/> <path transform="translate(-445.07 -426.52)" d="m1960.2 2948.4c-5.3706-27.575-10.552-55.19-16.238-82.7-1.5157-7.3331-5.7489-14.2-6.6664-21.539-1.4885-11.907-8.4376-28.354 3.6154-34.525 12.043-6.1652 11.384 12.802 18.419 18.939 57.282 49.961 149.51 75.922 216.38 8.4648 99.751-100.63 218.6-104.34 345.12-83.51 52.089 8.5746 94.541 34.729 131.58 72.811 38.16 39.235 84.944 59.812 141.26 44.75 43.184-11.549 66.206-43.33 72.093-84.784 9.0745-63.9-11.283-120.9-52.609-169.86-19.384-22.968-40.131-44.746-65.399-62.025-25.539-17.465-31.112-47.413-38.455-74.286-11.875-43.462-33.236-81.575-56.904-119.03-4.7174-7.4652-13.027-13.797-10.784-24.494 39.569 31.181 61.151 74.658 81.348 119.07a40.012 40.012 0 0 1 2.652 7.0644c14.387 59.736 44.071 99.727 106.7 124.84 80.241 32.175 130.69 98.476 135.85 189.82 5.0058 88.705-39.109 158.78-119.38 194.17-77.08 33.982-164.48 18.06-224.65-42.46-26.362-26.516-53.457-52.825-90.13-61.912-113.51-28.124-220.25-27.356-311.46 64.319-65.55 65.887-178.73 82.482-262.34 16.88z" fill="#e1683d"/> <path transform="translate(-445.07 -426.52)" d="m1892.9 3141.9c0 67.969 0.02674 137.21-0.00815 206.44-0.03013 59.565 0.02536 699.04 0.00277 890.33-0.00108 8.3874-0.24581 16.775-0.37493 25.162-0.204 13.246-5.1866 14.016-17.21 9.5741-60.264-22.262-60.286-21.834-60.301-87.472q-0.12867-565.03-0.372-1130.1-0.01775-51.454-0.00138-103.06c11.722 5.245 7.2818 19.253 11.142 28.936 18.887 47.372 44.359 91.566 65.008 138.03 4.8232 10.854 11.248 17.9 2.1144 22.13zm3.6194 432.9c-1.8314 4.1803-3.2457 5.8762-2.8572 6.8603 0.68114 1.7251-2.9195 6.7883 2.7163 4.6781 0.99288-0.37165 0.14096-5.6701 0.14096-11.538z" fill="#f6ffff"/> <path transform="translate(-445.07 -426.52)" d="m2074 1994.7c7.1986-11.055-4.8633-14.383-8.847-20.291-30.661-45.468-54.053-93.819-64.339-151.58 12.5 5.6139 16.963 14.334 22.863 21.721 46.446 58.157 136.77 75.654 199.99 37.711 48.715-29.239 66.472-77.285 68.138-130.15 2.6585-84.373-15.274-164.3-64.03-235.42-9.8994-14.44-22.803-31.339 6.8211-39.911 16.506 7.6081 28.71 20.911 38.738 34.874 77.289 107.62 108.11 226.18 70.93 355.49-35.065 121.94-157.5 177.5-270.26 127.55z" fill="#e1683d"/> <path transform="translate(-445.07 -426.52)" d="m2545.8 1946.9c4.7137-16.155-0.26779-31.211-5.1451-46.319-6.702-20.762-10.105-77.138-4.3614-98.041 15.397 23.495 28.177 44.765 47.879 61.536 71.203 60.61 163.21 49.282 214.29-14.246 66.35-82.52 88.299-178.13 73.814-282.41-1.1154-8.0293-4.7254-16.196-8.9783-23.206-9.0594-14.93-11.661-29.178-0.00246-43.794 36.033 32.936 50.987 76.317 57.399 122.6 16.26 117.36-7.2295 225.64-83.312 318.33-70.826 86.294-199.84 94.506-279.96 20.648-3.0034-2.7685-5.1448-6.4721-7.6735-9.7292 0.56232-3.2458-0.08147-5.7137-3.9808-6.0277z" fill="#e1683d"/> <path transform="translate(-445.07 -426.52)" d="m2960.4 2427.4c9.0926-8.6042 4.7952-18.547 2.7049-28.184-7.6461-35.248-12.896-70.667-8.0212-106.85 0.98567-7.3164 0.218-15.219 7.857-22.111 10.685 12.74 12.314 29.778 22.24 42.768 60.578 79.281 158.3 87.741 233.37 15.877 57.611-55.149 89.91-123.8 91.976-205.08a113.84 113.84 0 0 0-7.319-44.264c-10.723-27.534-16.689-55.906-20.288-84.987 28.778 10.105 40.993 36.071 53.078 59.963 28.561 56.459 29.459 116 11.281 175.82-28.113 92.52-70.496 175.54-155.48 229.87-76.253 48.755-171.63 35.482-231.4-32.826z" fill="#e1683d"/> <path transform="translate(-445.07 -426.52)" d="m1669.6 2465.7c0.20369-18.852-12.936-31.716-21.219-46.676-17.346-31.327-35.436-62.244-52.639-93.647-2.9372-5.3613-9.4001-13.231-3.1788-18.217 8.2651-6.6245 13.48 3.2677 17.815 8.2919 36.888 42.756 84.578 61.339 139.73 62.205 60.795 0.95523 114.77-49.193 119.48-109.85 6.5682-84.604-24.425-156.65-74.531-222.26-2.0067-2.6273-5.6293-4.3409-6.8474-7.1871-3.1222-7.2948-12.641-15.434-5.6196-22.515 8.8624-8.9386 13.607 3.9371 19.853 7.9239 10.201 6.5107 16.967 22.74 33.282 11.501 61.4 65.019 93.618 143.83 105.98 230.99 6.881 48.514-1.9762 95.303-28.522 137.49-51.502 81.847-148.61 108.78-236.65 65.934-1.4868-2.9047-3.3052-5.2646-7.0895-4.6012z" fill="#e1683d"/> <g fill="#ffb39f"> <path transform="translate(-445.07 -426.52)" d="m2747.7 2554.4c-25.54-17.47-31.11-47.41-38.45-74.29-11.88-43.46-33.24-81.57-56.91-119.03-4.71-7.4602-13.02-13.79-10.78-24.49-163.74-156.58-419.52-107.36-512.77 99.27-14.39 31.88-24.76 65.6-36.52 98.64-4.48 12.57-11.33 20.03-25.1 24.37-52.49 16.56-100.45 41.05-138.02 83.2-82.81 92.88-67.96 242.34 30.99 306.31-5.3699-27.58-10.55-55.19-16.23-82.7-1.52-7.3301-5.75-14.2-6.6699-21.54-1.49-11.91-8.4399-28.35 3.61-34.52 12.05-6.1699 11.39 12.8 18.42 18.93 57.29 49.97 149.51 75.93 216.38 8.47 99.75-100.63 218.6-104.34 345.12-83.51 52.09 8.5701 94.54 34.73 131.58 72.81 38.16 39.23 84.95 59.81 141.27 44.75 43.18-11.55 66.2-43.33 72.09-84.78 9.0701-63.9-11.28-120.9-52.61-169.87-19.38-22.96-40.13-44.74-65.4-62.02z"/> <path transform="translate(-445.07 -426.52)" d="m2863.3 1544.2c-9.0601-14.93-11.66-29.18 0-43.79-20.85-14.52-35.83-35.89-59.69-47.3-92.16-44.08-198.95-13.61-258.66 77.17-53.25 80.96-70.92 172.09-64.96 267.25 3.55 56.62 22.58 108.97 65.81 149.35 0.05005-0.14 0.07983-0.28 0.11987-0.43006 1.27 1.9301 2.54 3.8601 3.8301 5.8 0.55-3.1799-0.07007-5.61-3.77-6 4.3999-15.92-0.51-30.78-5.3198-45.69-6.7002-20.76-10.11-77.13-4.3601-98.04 15.39 23.5 28.17 44.77 47.88 61.54 71.2 60.61 163.21 49.28 214.29-14.25 66.35-82.52 88.3-178.13 73.81-282.4-1.11-8.0301-4.7199-16.2-8.9799-23.21z"/> <path transform="translate(-445.07 -426.52)" d="m2023.7 1844.6c46.44 58.16 136.77 75.66 199.98 37.71 48.72-29.24 66.48-77.28 68.14-130.15 2.6599-84.37-15.27-164.3-64.03-235.42-9.8999-14.44-22.8-31.34 6.8198-39.91-106.27-88.96-262.23-39.32-308.18 98.61-30.02 90.07-13.08 177.47 18.22 263.41 24.47 67.2 62.61 123.55 129.37 155.9 7.2-11.06-4.8601-14.39-8.8501-20.29-30.66-45.47-54.05-93.82-64.34-151.58 12.5 5.61 16.97 14.33 22.87 21.72z"/> <path transform="translate(-445.07 -426.52)" d="m1788.2 2038.3c-3.1199-7.3-12.64-15.44-5.6199-22.52 8.8599-8.9401 13.61 3.9399 19.86 7.9299 10.2 6.51 16.96 22.74 33.28 11.5-42.24-49.25-95.3-79.63-160.18-83.26-100.48-5.61-184.95 78.26-187.41 184.93-2.48 107.32 40.02 197.98 109.47 276.92 19.58 22.27 42.73 41.89 71.99 51.83v-0.11993c1.0998 3.26 3.7999 4.03 6.9399 4.1101-1.47-2.8601-3.26-5.1902-6.95-4.6201-0.09009-18.51-13.02-31.25-21.21-46.04-17.34-31.33-35.43-62.25-52.64-93.65-2.9299-5.3601-9.3999-13.23-3.1799-18.22 8.27-6.6199 13.48 3.27 17.82 8.29 36.89 42.76 84.58 61.34 139.73 62.21 60.8 0.9502 114.77-49.19 119.48-109.85 6.5699-84.6-24.42-156.65-74.53-222.25-2.0102-2.63-5.6303-4.3501-6.8502-7.19z"/> <path transform="translate(-445.07 -426.52)" d="m3282.9 1994.6c-18.77-21.36-45.32-31.67-70.5-37.78-73.93-17.94-139.3 2.9199-192.61 56.96-57.34 58.13-93 128.87-109.44 208.27-15.63 75.51-5.6601 146.43 50.03 205.38 9.0901-8.6099 4.79-18.55 2.7002-28.19-7.6401-35.25-12.89-70.66-8.02-106.84 0.99-7.3201 0.22-15.22 7.8599-22.11 10.68 12.74 12.31 29.78 22.24 42.77 60.58 79.28 158.3 87.74 233.37 15.87 57.61-55.15 89.91-123.8 91.98-205.08a113.96 113.96 0 0 0-7.3201-44.26c-10.73-27.54-16.69-55.91-20.29-84.99z"/> <path transform="translate(-445.07 -426.52)" d="m1500.7 2476.4c-92.84-143.59-146.31-296.16-110.68-470.33 30.77-150.37 128.18-243.62 284.48-243.97 35.18-0.08 66.29 15.16 98.34 26.78v-0.0099c2.01 0.80994 5.16 2.85 5.84 2.22 3.25-3 1.0601-5.51-1.78-7.53-64.59-61.04-139.27-80.91-223.82-50.91-92.6 32.86-151.9 101.58-190.61 188.88-51.82 116.85-49.77 236.68-13.19 357.05 28.3 93.11 75.89 174.65 149.36 239.79 5.4 4.7998 9.33 15.93 19.81 7.9199 8.89-6.78 0.69006-12.6-1.27-19.19-3.4199-11.53-10.14-20.89-16.48-30.7z"/> <path transform="translate(-445.07 -426.52)" d="m1826.2 1617.2c3.4201-110.57 35.3-210.25 114.95-290.69 77.02-77.78 213.23-100.25 309.46-51.49 7.26 3.6799 16.29 11.7 22.01 2.85 5.21-8.07-5.28-14.53-11.03-20.05-38.54-37.04-85.78-55.66-138.12-57.5-97.11-3.4102-177.04 34.8-240.55 107.63-56.74 65.07-87.47 142.37-95.91 226.97-6.5701 65.89 4.15 130.68 39.01 195.5-4e-5 -42.17-0.91996-77.72 0.17989-113.22z"/> <path transform="translate(-445.07 -426.52)" d="m2879.4 1254.3c-35.14-34.61-79.14-50.1-126.85-53.56-121.13-8.77-224.96 56.51-272.13 169.35-5.22 12.49-13.63 24.6-9.1599 40.2 12.99-3.39 15.92-14.62 22.17-23.09 62.32-84.42 143.12-136.25 250.54-139.05 47.5-1.24 93.3 6.88 134.51 32.64 4.4199 2.76 9.3701 5.79 13.02 0.82007 1.8401-2.5 1.28-8.3-0.37988-11.46a64.812 64.812 0 0 0-11.72-15.85z"/> <path transform="translate(-445.07 -426.52)" d="m2508.5 3152.4c-13.24-0.24-31.05 18.98-31.08 33.53-0.03 15.47 17.56 36.56 31.11 37.3 16.07 0.87012 36.19-18.66 35.97-34.92-0.21997-16.13-19.75-35.61-36-35.91z"/> <path transform="translate(-445.07 -426.52)" d="m2508.1 3313.4c-13.99 0.38013-33.84 18.98-34.13 31.99-0.35986 15.7 20.8 36.51 36.53 35.01 19.79-1.8799 29.41-15.41 31.64-33.27 1.9402-15.44-18.39-34.15-34.04-33.73z"/> <path transform="translate(-445.07 -426.52)" d="m2341.7 3223.1c13.58 0.63013 35.28-19.28 36.08-33.1 0.82007-14.32-17.98-33.12-34.19-34.19-16.94-1.1099-31.43 12.87-31.87 30.74-0.45994 18.66 13.59 35.78 29.98 36.55z"/> <path transform="translate(-445.07 -426.52)" d="m2340.5 3313.9c-15.22 1.6199-25.79 13.44-28.35 31.71-2.23 15.84 14.19 33.9 29.59 34.79 15.68 0.8999 35.92-16.77 36.51-31.87 0.60008-15.15-17.95-34.38-37.75-34.63z"/> <path transform="translate(-445.07 -426.52)" d="m2429.3 3393.9c-19.21-0.61987-31.1 11.23-31.82 30.67-0.71 18.88 10.23 31.58 28.12 35.18 14.91 2.99 33.72-16.63 34.33-35.86-2.8801-14.88-11.18-29.36-30.63-29.99z"/> <path transform="translate(-445.07 -426.52)" d="m2424.7 3299.1c14.51 0.99024 33.42-16.65 33.83-31.55 0.38989-14.61-18-36.48-30.98-34.21-16.67 2.9099-27.86 13.59-30.33 26.9-0.33007 19.2 14.75 38 27.48 38.86z"/> <path transform="translate(-445.07 -426.52)" d="m3378.1 1804.3q-2.4002-2.64-4.79-5.27c-1.8501-3.65-2.9502-8.02-5.6401-10.86-113.97-119.86-294.32-76.6-358.95 73.35-1.47 3.3999-5.8 6.57-0.15015 10.16 5.5801 3.55 8.1502 0.38013 12.27-3.45 21.26-19.8 41.2-41.86 65.16-57.78 93.54-62.18 189.31-56.79 285.22-4.36 0.01 0 0.33008 0.3 0.6499 0.61 0.32007 0.30005 0.63013 0.6001 0.64014 0.6001 1.98 3.7999 5.0901 7.02 8.8699 3.4399 2.8901-2.73-0.45992-5.0901-3.2798-6.44z"/> <path transform="translate(-445.07 -426.52)" d="m2470.6 1414.3q-0.80712-0.941-1.614-1.8821-0.90894 0.84339-1.8174 1.6868 1.2385 0.96387 2.4761 1.9277 0.47789-0.86626 0.95531-1.7324z"/> </g> <path transform="translate(-445.07 -426.52)" d="m1896.5 3574.8c0 5.8682 0.85192 11.167-0.141 11.538-5.6357 2.1103-2.0351-2.953-2.7163-4.6781-0.38842-0.98412 1.0258-2.68 2.8573-6.8603z" fill="#001219"/> </svg>